<?xml version="1.0" standalone="no"?>
<!DOCTYPE svg PUBLIC "-//W3C//DTD SVG 20010904//EN"
 "http://www.w3.org/TR/2001/REC-SVG-20010904/DTD/svg10.dtd">
<svg version="1.0" xmlns="http://www.w3.org/2000/svg"
 width="230.000000pt" height="230.000000pt" viewBox="0 0 230.000000 230.000000"
 preserveAspectRatio="xMidYMid meet">

<g transform="translate(0.000000,230.000000) scale(0.100000,-0.100000)"
fill="#000000" stroke="none">
<path d="M418 2225 c-63 -23 -127 -74 -164 -130 -37 -55 -55 -124 -103 -405
-11 -63 -36 -203 -56 -310 -27 -142 -35 -212 -32 -258 9 -119 79 -216 196
-271 56 -26 57 -26 339 -29 155 -2 282 -7 282 -12 0 -5 -13 -42 -30 -83 -41
-103 -53 -167 -48 -257 13 -219 212 -410 428 -410 54 0 65 3 89 28 15 16 74
133 140 282 63 140 133 298 156 350 l43 95 168 5 c144 5 176 9 217 27 66 30
150 113 178 176 l24 52 0 450 c0 409 -2 455 -18 502 -23 66 -89 140 -159 178
l-53 30 -780 2 c-643 2 -787 -1 -817 -12z m1062 -738 l0 -542 -135 -304 c-74
-166 -135 -306 -135 -309 0 -4 -8 -17 -18 -29 -16 -22 -19 -22 -47 -7 -78 40
-128 122 -127 209 0 33 14 89 41 163 24 66 41 131 41 155 -1 85 -65 172 -149
202 -35 12 -97 15 -323 15 -265 0 -281 1 -308 20 -58 41 -58 49 20 482 39 216
77 407 84 424 29 64 29 64 569 64 l487 0 0 -543z m490 528 c62 -32 60 -19 60
-483 l0 -424 -34 -34 -34 -34 -131 0 -131 0 0 495 0 495 120 0 c88 0 129 -4
150 -15z"/>
</g>
</svg>
