<?xml version="1.0" standalone="no"?>
<!DOCTYPE svg PUBLIC "-//W3C//DTD SVG 20010904//EN"
 "http://www.w3.org/TR/2001/REC-SVG-20010904/DTD/svg10.dtd">
<svg version="1.0" xmlns="http://www.w3.org/2000/svg"
 width="230.000000pt" height="230.000000pt" viewBox="0 0 230.000000 230.000000"
 preserveAspectRatio="xMidYMid meet">

<g transform="translate(0.000000,230.000000) scale(0.100000,-0.100000)"
fill="#000000" stroke="none">
<path d="M984 2212 c-16 -16 -44 -65 -63 -108 -18 -44 -40 -95 -49 -114 -8
-19 -51 -116 -94 -214 l-78 -179 0 -769 0 -769 573 3 c639 4 621 2 707 75 79
68 103 125 139 333 26 152 42 241 47 265 2 11 7 34 9 50 3 17 8 37 10 45 4 13
12 64 31 183 2 16 6 32 9 36 2 5 5 47 6 95 1 75 -2 93 -26 142 -45 92 -102
140 -204 173 -21 7 -136 11 -307 11 -150 0 -275 4 -278 9 -5 8 6 44 34 106 61
139 59 288 -5 415 -70 138 -219 232 -378 239 -49 2 -58 -1 -83 -27z"/>
<path d="M253 1445 c-71 -33 -128 -88 -160 -153 l-28 -57 0 -470 c0 -463 0
-471 22 -517 28 -61 90 -120 161 -155 48 -24 71 -28 169 -31 l113 -4 0 706 0
707 -114 -2 c-96 -1 -123 -5 -163 -24z"/>
</g>
</svg>
