<?xml version="1.0" standalone="no"?>
<!DOCTYPE svg PUBLIC "-//W3C//DTD SVG 20010904//EN"
 "http://www.w3.org/TR/2001/REC-SVG-20010904/DTD/svg10.dtd">
<svg version="1.0" xmlns="http://www.w3.org/2000/svg"
 width="230.000000pt" height="230.000000pt" viewBox="0 0 230.000000 230.000000"
 preserveAspectRatio="xMidYMid meet">

<g transform="translate(0.000000,230.000000) scale(0.100000,-0.100000)"
fill="#000000" stroke="none">
<path d="M981 2213 c-15 -17 -74 -134 -140 -283 -63 -140 -133 -298 -156 -350
l-43 -95 -168 -5 c-144 -5 -176 -9 -217 -27 -66 -30 -150 -113 -178 -176 l-24
-52 0 -450 c0 -409 2 -455 18 -502 23 -66 89 -140 159 -178 l53 -30 790 0 790
0 50 24 c62 31 124 93 153 151 12 26 36 128 57 240 19 107 52 283 72 390 48
250 50 341 10 422 -33 67 -90 121 -166 157 -56 26 -57 26 -338 29 -156 2 -283
7 -283 12 0 5 13 42 30 83 41 103 53 167 48 257 -13 219 -212 410 -428 410
-54 0 -65 -3 -89 -27z m223 -244 c90 -79 99 -165 37 -337 -24 -66 -41 -131
-41 -155 1 -85 65 -172 149 -202 35 -12 97 -15 323 -15 265 0 281 -1 308 -20
58 -41 58 -49 -20 -482 -39 -216 -77 -407 -84 -424 -29 -64 -31 -64 -570 -64
l-486 0 0 543 0 542 135 304 c74 166 135 305 135 307 0 3 7 15 15 28 20 31 42
25 99 -25z m-604 -1204 l0 -495 -120 0 c-88 0 -129 4 -150 15 -62 32 -60 19
-60 483 l0 424 34 34 34 34 131 0 131 0 0 -495z"/>
</g>
</svg>
